<mxfile host="app.diagrams.net" modified="2023-01-19T02:47:06.379Z" agent="5.0 (Macintosh; Intel Mac OS X 10_15_7) AppleWebKit/537.36 (KHTML, like Gecko) Chrome/109.0.0.0 Safari/537.36" etag="hjpv-Tt0XBm2MsE2JtNq" version="20.8.5" type="github">
  <diagram id="C5RBs43oDa-KdzZeNtuy" name="Page-1">
    <mxGraphModel dx="954" dy="648" grid="1" gridSize="10" guides="1" tooltips="1" connect="1" arrows="1" fold="1" page="1" pageScale="1" pageWidth="827" pageHeight="1169" math="0" shadow="0">
      <root>
        <mxCell id="WIyWlLk6GJQsqaUBKTNV-0" />
        <mxCell id="WIyWlLk6GJQsqaUBKTNV-1" parent="WIyWlLk6GJQsqaUBKTNV-0" />
        <mxCell id="ZHy5ssDO9361qRA2f2Sw-0" value="User" style="swimlane;fontStyle=1;align=center;verticalAlign=top;childLayout=stackLayout;horizontal=1;startSize=26;horizontalStack=0;resizeParent=1;resizeParentMax=0;resizeLast=0;collapsible=1;marginBottom=0;" parent="WIyWlLk6GJQsqaUBKTNV-1" vertex="1">
          <mxGeometry x="300" y="10" width="160" height="140" as="geometry" />
        </mxCell>
        <mxCell id="ZHy5ssDO9361qRA2f2Sw-1" value="+ id: type&#xa;+username:&#xa;+email: str&#xa;+password_hash: str" style="text;strokeColor=none;fillColor=none;align=left;verticalAlign=top;spacingLeft=4;spacingRight=4;overflow=hidden;rotatable=0;points=[[0,0.5],[1,0.5]];portConstraint=eastwest;" parent="ZHy5ssDO9361qRA2f2Sw-0" vertex="1">
          <mxGeometry y="26" width="160" height="64" as="geometry" />
        </mxCell>
        <mxCell id="ZHy5ssDO9361qRA2f2Sw-2" value="" style="line;strokeWidth=1;fillColor=none;align=left;verticalAlign=middle;spacingTop=-1;spacingLeft=3;spacingRight=3;rotatable=0;labelPosition=right;points=[];portConstraint=eastwest;strokeColor=inherit;" parent="ZHy5ssDO9361qRA2f2Sw-0" vertex="1">
          <mxGeometry y="90" width="160" height="8" as="geometry" />
        </mxCell>
        <mxCell id="ZHy5ssDO9361qRA2f2Sw-3" value="+ set_password(str): void&#xa;+check_password(str): bool" style="text;strokeColor=none;fillColor=none;align=left;verticalAlign=top;spacingLeft=4;spacingRight=4;overflow=hidden;rotatable=0;points=[[0,0.5],[1,0.5]];portConstraint=eastwest;" parent="ZHy5ssDO9361qRA2f2Sw-0" vertex="1">
          <mxGeometry y="98" width="160" height="42" as="geometry" />
        </mxCell>
        <mxCell id="ZHy5ssDO9361qRA2f2Sw-52" value="" style="rounded=0;orthogonalLoop=1;jettySize=auto;html=1;endArrow=none;endFill=0;exitX=0.482;exitY=1.01;exitDx=0;exitDy=0;exitPerimeter=0;entryX=0.482;entryY=1.01;entryDx=0;entryDy=0;entryPerimeter=0;horizontal=1;" parent="ZHy5ssDO9361qRA2f2Sw-0" source="ZHy5ssDO9361qRA2f2Sw-3" edge="1">
          <mxGeometry relative="1" as="geometry">
            <mxPoint x="80" y="130" as="sourcePoint" />
            <mxPoint x="77" y="200" as="targetPoint" />
          </mxGeometry>
        </mxCell>
        <mxCell id="ptIwj1_LwddvAGhthmih-20" value="1..1" style="edgeLabel;html=1;align=center;verticalAlign=middle;resizable=0;points=[];" parent="ZHy5ssDO9361qRA2f2Sw-52" vertex="1" connectable="0">
          <mxGeometry x="-0.6417" y="1" relative="1" as="geometry">
            <mxPoint x="12" as="offset" />
          </mxGeometry>
        </mxCell>
        <mxCell id="ptIwj1_LwddvAGhthmih-21" value="0..*" style="edgeLabel;html=1;align=center;verticalAlign=middle;resizable=0;points=[];" parent="ZHy5ssDO9361qRA2f2Sw-52" vertex="1" connectable="0">
          <mxGeometry x="0.6689" y="3" relative="1" as="geometry">
            <mxPoint x="10" as="offset" />
          </mxGeometry>
        </mxCell>
        <mxCell id="ZHy5ssDO9361qRA2f2Sw-4" value="Model" style="swimlane;fontStyle=1;align=center;verticalAlign=top;childLayout=stackLayout;horizontal=1;startSize=26;horizontalStack=0;resizeParent=1;resizeParentMax=0;resizeLast=0;collapsible=1;marginBottom=0;" parent="WIyWlLk6GJQsqaUBKTNV-1" vertex="1">
          <mxGeometry x="300" y="210" width="200" height="200" as="geometry" />
        </mxCell>
        <mxCell id="ZHy5ssDO9361qRA2f2Sw-5" value="+ id: type&#xa;+user_id:&#xa;+modeltype_id&#xa;+name: str&#xa;+number_of_last_games: int&#xa;+classifier: bytearray" style="text;strokeColor=none;fillColor=none;align=left;verticalAlign=top;spacingLeft=4;spacingRight=4;overflow=hidden;rotatable=0;points=[[0,0.5],[1,0.5]];portConstraint=eastwest;" parent="ZHy5ssDO9361qRA2f2Sw-4" vertex="1">
          <mxGeometry y="26" width="200" height="94" as="geometry" />
        </mxCell>
        <mxCell id="ZHy5ssDO9361qRA2f2Sw-6" value="" style="line;strokeWidth=1;fillColor=none;align=left;verticalAlign=middle;spacingTop=-1;spacingLeft=3;spacingRight=3;rotatable=0;labelPosition=right;points=[];portConstraint=eastwest;strokeColor=inherit;" parent="ZHy5ssDO9361qRA2f2Sw-4" vertex="1">
          <mxGeometry y="120" width="200" height="8" as="geometry" />
        </mxCell>
        <mxCell id="ZHy5ssDO9361qRA2f2Sw-7" value="+ retrieve_feature_values(str): void&#xa;+retrieve_targets(str): bool&#xa;+train(): void&#xa;+predict(matches): List[str]" style="text;strokeColor=none;fillColor=none;align=left;verticalAlign=top;spacingLeft=4;spacingRight=4;overflow=hidden;rotatable=0;points=[[0,0.5],[1,0.5]];portConstraint=eastwest;" parent="ZHy5ssDO9361qRA2f2Sw-4" vertex="1">
          <mxGeometry y="128" width="200" height="72" as="geometry" />
        </mxCell>
        <mxCell id="ZHy5ssDO9361qRA2f2Sw-8" value="Feature" style="swimlane;fontStyle=1;align=center;verticalAlign=top;childLayout=stackLayout;horizontal=1;startSize=26;horizontalStack=0;resizeParent=1;resizeParentMax=0;resizeLast=0;collapsible=1;marginBottom=0;" parent="WIyWlLk6GJQsqaUBKTNV-1" vertex="1">
          <mxGeometry x="20" y="220" width="220" height="90" as="geometry" />
        </mxCell>
        <mxCell id="ZHy5ssDO9361qRA2f2Sw-9" value="+ id: int&#xa;+name: str" style="text;strokeColor=none;fillColor=none;align=left;verticalAlign=top;spacingLeft=4;spacingRight=4;overflow=hidden;rotatable=0;points=[[0,0.5],[1,0.5]];portConstraint=eastwest;" parent="ZHy5ssDO9361qRA2f2Sw-8" vertex="1">
          <mxGeometry y="26" width="220" height="34" as="geometry" />
        </mxCell>
        <mxCell id="ZHy5ssDO9361qRA2f2Sw-10" value="" style="line;strokeWidth=1;fillColor=none;align=left;verticalAlign=middle;spacingTop=-1;spacingLeft=3;spacingRight=3;rotatable=0;labelPosition=right;points=[];portConstraint=eastwest;strokeColor=inherit;" parent="ZHy5ssDO9361qRA2f2Sw-8" vertex="1">
          <mxGeometry y="60" width="220" height="8" as="geometry" />
        </mxCell>
        <mxCell id="ZHy5ssDO9361qRA2f2Sw-11" value="+retrieve_values(Model, List[Match])" style="text;strokeColor=none;fillColor=none;align=left;verticalAlign=top;spacingLeft=4;spacingRight=4;overflow=hidden;rotatable=0;points=[[0,0.5],[1,0.5]];portConstraint=eastwest;" parent="ZHy5ssDO9361qRA2f2Sw-8" vertex="1">
          <mxGeometry y="68" width="220" height="22" as="geometry" />
        </mxCell>
        <mxCell id="ZHy5ssDO9361qRA2f2Sw-12" value="ModelType" style="swimlane;fontStyle=1;align=center;verticalAlign=top;childLayout=stackLayout;horizontal=1;startSize=26;horizontalStack=0;resizeParent=1;resizeParentMax=0;resizeLast=0;collapsible=1;marginBottom=0;" parent="WIyWlLk6GJQsqaUBKTNV-1" vertex="1">
          <mxGeometry x="100" y="453" width="160" height="100" as="geometry" />
        </mxCell>
        <mxCell id="ZHy5ssDO9361qRA2f2Sw-13" value="+ id: int&#xa;+name:" style="text;strokeColor=none;fillColor=none;align=left;verticalAlign=top;spacingLeft=4;spacingRight=4;overflow=hidden;rotatable=0;points=[[0,0.5],[1,0.5]];portConstraint=eastwest;" parent="ZHy5ssDO9361qRA2f2Sw-12" vertex="1">
          <mxGeometry y="26" width="160" height="44" as="geometry" />
        </mxCell>
        <mxCell id="ZHy5ssDO9361qRA2f2Sw-14" value="" style="line;strokeWidth=1;fillColor=none;align=left;verticalAlign=middle;spacingTop=-1;spacingLeft=3;spacingRight=3;rotatable=0;labelPosition=right;points=[];portConstraint=eastwest;strokeColor=inherit;" parent="ZHy5ssDO9361qRA2f2Sw-12" vertex="1">
          <mxGeometry y="70" width="160" height="8" as="geometry" />
        </mxCell>
        <mxCell id="ZHy5ssDO9361qRA2f2Sw-15" value="+get_classifier(): Classifier" style="text;strokeColor=none;fillColor=none;align=left;verticalAlign=top;spacingLeft=4;spacingRight=4;overflow=hidden;rotatable=0;points=[[0,0.5],[1,0.5]];portConstraint=eastwest;" parent="ZHy5ssDO9361qRA2f2Sw-12" vertex="1">
          <mxGeometry y="78" width="160" height="22" as="geometry" />
        </mxCell>
        <mxCell id="ZHy5ssDO9361qRA2f2Sw-16" value="League" style="swimlane;fontStyle=1;align=center;verticalAlign=top;childLayout=stackLayout;horizontal=1;startSize=26;horizontalStack=0;resizeParent=1;resizeParentMax=0;resizeLast=0;collapsible=1;marginBottom=0;" parent="WIyWlLk6GJQsqaUBKTNV-1" vertex="1">
          <mxGeometry x="590" y="190" width="160" height="90" as="geometry" />
        </mxCell>
        <mxCell id="ZHy5ssDO9361qRA2f2Sw-17" value="+ id: int&#xa;+name: str&#xa;+code: str&#xa;+country_id: int" style="text;strokeColor=none;fillColor=none;align=left;verticalAlign=top;spacingLeft=4;spacingRight=4;overflow=hidden;rotatable=0;points=[[0,0.5],[1,0.5]];portConstraint=eastwest;" parent="ZHy5ssDO9361qRA2f2Sw-16" vertex="1">
          <mxGeometry y="26" width="160" height="64" as="geometry" />
        </mxCell>
        <mxCell id="ZHy5ssDO9361qRA2f2Sw-45" style="rounded=0;orthogonalLoop=1;jettySize=auto;html=1;exitX=0.425;exitY=1.01;exitDx=0;exitDy=0;entryX=0.5;entryY=0;entryDx=0;entryDy=0;exitPerimeter=0;endArrow=none;endFill=0;" parent="WIyWlLk6GJQsqaUBKTNV-1" source="ZHy5ssDO9361qRA2f2Sw-21" edge="1">
          <mxGeometry relative="1" as="geometry">
            <mxPoint x="660.8800000000001" y="771.8399999999999" as="sourcePoint" />
            <mxPoint x="660.32" y="860" as="targetPoint" />
          </mxGeometry>
        </mxCell>
        <mxCell id="ptIwj1_LwddvAGhthmih-16" value="1..1" style="edgeLabel;html=1;align=center;verticalAlign=middle;resizable=0;points=[];" parent="ZHy5ssDO9361qRA2f2Sw-45" vertex="1" connectable="0">
          <mxGeometry x="0.6197" y="-1" relative="1" as="geometry">
            <mxPoint x="11" y="7" as="offset" />
          </mxGeometry>
        </mxCell>
        <mxCell id="ptIwj1_LwddvAGhthmih-17" value="1..1" style="edgeLabel;html=1;align=center;verticalAlign=middle;resizable=0;points=[];" parent="ZHy5ssDO9361qRA2f2Sw-45" vertex="1" connectable="0">
          <mxGeometry x="-0.2676" y="1" relative="1" as="geometry">
            <mxPoint x="11" y="-28" as="offset" />
          </mxGeometry>
        </mxCell>
        <mxCell id="ZHy5ssDO9361qRA2f2Sw-20" value="Match" style="swimlane;fontStyle=1;align=center;verticalAlign=top;childLayout=stackLayout;horizontal=1;startSize=26;horizontalStack=0;resizeParent=1;resizeParentMax=0;resizeLast=0;collapsible=1;marginBottom=0;" parent="WIyWlLk6GJQsqaUBKTNV-1" vertex="1">
          <mxGeometry x="590" y="593" width="160" height="130" as="geometry" />
        </mxCell>
        <mxCell id="ZHy5ssDO9361qRA2f2Sw-21" value="+ id: int&#xa;+matchday: int&#xa;+match_date_time: datetime&#xa;+status: str&#xa;+score_id: int&#xa;+season_id: int" style="text;strokeColor=none;fillColor=none;align=left;verticalAlign=top;spacingLeft=4;spacingRight=4;overflow=hidden;rotatable=0;points=[[0,0.5],[1,0.5]];portConstraint=eastwest;" parent="ZHy5ssDO9361qRA2f2Sw-20" vertex="1">
          <mxGeometry y="26" width="160" height="104" as="geometry" />
        </mxCell>
        <mxCell id="ZHy5ssDO9361qRA2f2Sw-43" style="edgeStyle=orthogonalEdgeStyle;rounded=0;orthogonalLoop=1;jettySize=auto;html=1;exitX=0.5;exitY=0;exitDx=0;exitDy=0;entryX=0.5;entryY=1;entryDx=0;entryDy=0;endArrow=none;endFill=0;" parent="WIyWlLk6GJQsqaUBKTNV-1" source="ZHy5ssDO9361qRA2f2Sw-24" target="ZHy5ssDO9361qRA2f2Sw-16" edge="1">
          <mxGeometry relative="1" as="geometry" />
        </mxCell>
        <mxCell id="ptIwj1_LwddvAGhthmih-6" value="0..*" style="edgeLabel;html=1;align=center;verticalAlign=middle;resizable=0;points=[];" parent="ZHy5ssDO9361qRA2f2Sw-43" vertex="1" connectable="0">
          <mxGeometry x="-0.7947" y="1" relative="1" as="geometry">
            <mxPoint x="11" as="offset" />
          </mxGeometry>
        </mxCell>
        <mxCell id="ptIwj1_LwddvAGhthmih-7" value="1..1" style="edgeLabel;html=1;align=center;verticalAlign=middle;resizable=0;points=[];" parent="ZHy5ssDO9361qRA2f2Sw-43" vertex="1" connectable="0">
          <mxGeometry x="0.8841" y="1" relative="1" as="geometry">
            <mxPoint x="11" y="4" as="offset" />
          </mxGeometry>
        </mxCell>
        <mxCell id="ZHy5ssDO9361qRA2f2Sw-24" value="Season" style="swimlane;fontStyle=1;align=center;verticalAlign=top;childLayout=stackLayout;horizontal=1;startSize=26;horizontalStack=0;resizeParent=1;resizeParentMax=0;resizeLast=0;collapsible=1;marginBottom=0;" parent="WIyWlLk6GJQsqaUBKTNV-1" vertex="1">
          <mxGeometry x="590" y="380" width="160" height="130" as="geometry" />
        </mxCell>
        <mxCell id="ZHy5ssDO9361qRA2f2Sw-25" value="+ id: int&#xa;+name: str&#xa;+start_date: date&#xa;+end_date: date&#xa;+current_matchday: int&#xa;+league_id: int&#xa;+winner_id: int" style="text;strokeColor=none;fillColor=none;align=left;verticalAlign=top;spacingLeft=4;spacingRight=4;overflow=hidden;rotatable=0;points=[[0,0.5],[1,0.5]];portConstraint=eastwest;" parent="ZHy5ssDO9361qRA2f2Sw-24" vertex="1">
          <mxGeometry y="26" width="160" height="104" as="geometry" />
        </mxCell>
        <mxCell id="ZHy5ssDO9361qRA2f2Sw-28" value="Score" style="swimlane;fontStyle=1;align=center;verticalAlign=top;childLayout=stackLayout;horizontal=1;startSize=26;horizontalStack=0;resizeParent=1;resizeParentMax=0;resizeLast=0;collapsible=1;marginBottom=0;" parent="WIyWlLk6GJQsqaUBKTNV-1" vertex="1">
          <mxGeometry x="590" y="860" width="160" height="120" as="geometry" />
        </mxCell>
        <mxCell id="ZHy5ssDO9361qRA2f2Sw-29" value="+ id: type&#xa;+winner: str&#xa;+fulltime_goals_home: int&#xa;+fulltime_goals_away: int&#xa;+halftime_goals_home: int&#xa;+halftime_goals_away: int" style="text;strokeColor=none;fillColor=none;align=left;verticalAlign=top;spacingLeft=4;spacingRight=4;overflow=hidden;rotatable=0;points=[[0,0.5],[1,0.5]];portConstraint=eastwest;" parent="ZHy5ssDO9361qRA2f2Sw-28" vertex="1">
          <mxGeometry y="26" width="160" height="94" as="geometry" />
        </mxCell>
        <mxCell id="ZHy5ssDO9361qRA2f2Sw-51" style="edgeStyle=orthogonalEdgeStyle;rounded=0;orthogonalLoop=1;jettySize=auto;html=1;exitX=1;exitY=0.5;exitDx=0;exitDy=0;entryX=0;entryY=1;entryDx=0;entryDy=0;endArrow=none;endFill=0;" parent="WIyWlLk6GJQsqaUBKTNV-1" source="ZHy5ssDO9361qRA2f2Sw-33" target="ZHy5ssDO9361qRA2f2Sw-24" edge="1">
          <mxGeometry relative="1" as="geometry" />
        </mxCell>
        <mxCell id="ptIwj1_LwddvAGhthmih-0" value="0..1" style="edgeLabel;html=1;align=center;verticalAlign=middle;resizable=0;points=[];" parent="ZHy5ssDO9361qRA2f2Sw-51" vertex="1" connectable="0">
          <mxGeometry x="-0.8818" relative="1" as="geometry">
            <mxPoint y="9" as="offset" />
          </mxGeometry>
        </mxCell>
        <mxCell id="ptIwj1_LwddvAGhthmih-1" value="1..*" style="edgeLabel;html=1;align=center;verticalAlign=middle;resizable=0;points=[];" parent="ZHy5ssDO9361qRA2f2Sw-51" vertex="1" connectable="0">
          <mxGeometry x="0.931" y="1" relative="1" as="geometry">
            <mxPoint x="11" as="offset" />
          </mxGeometry>
        </mxCell>
        <mxCell id="ptIwj1_LwddvAGhthmih-12" value="season winner" style="edgeLabel;html=1;align=center;verticalAlign=middle;resizable=0;points=[];" parent="ZHy5ssDO9361qRA2f2Sw-51" vertex="1" connectable="0">
          <mxGeometry x="-0.231" y="1" relative="1" as="geometry">
            <mxPoint as="offset" />
          </mxGeometry>
        </mxCell>
        <mxCell id="ZHy5ssDO9361qRA2f2Sw-32" value="Team" style="swimlane;fontStyle=1;align=center;verticalAlign=top;childLayout=stackLayout;horizontal=1;startSize=26;horizontalStack=0;resizeParent=1;resizeParentMax=0;resizeLast=0;collapsible=1;marginBottom=0;" parent="WIyWlLk6GJQsqaUBKTNV-1" vertex="1">
          <mxGeometry x="280" y="518" width="160" height="80" as="geometry" />
        </mxCell>
        <mxCell id="ZHy5ssDO9361qRA2f2Sw-33" value="+ id: int&#xa;+name: str&#xa;+tla: str" style="text;strokeColor=none;fillColor=none;align=left;verticalAlign=top;spacingLeft=4;spacingRight=4;overflow=hidden;rotatable=0;points=[[0,0.5],[1,0.5]];portConstraint=eastwest;" parent="ZHy5ssDO9361qRA2f2Sw-32" vertex="1">
          <mxGeometry y="26" width="160" height="54" as="geometry" />
        </mxCell>
        <mxCell id="ZHy5ssDO9361qRA2f2Sw-42" style="edgeStyle=orthogonalEdgeStyle;rounded=0;orthogonalLoop=1;jettySize=auto;html=1;exitX=0.5;exitY=1;exitDx=0;exitDy=0;entryX=0.5;entryY=0;entryDx=0;entryDy=0;endArrow=none;endFill=0;" parent="WIyWlLk6GJQsqaUBKTNV-1" source="ZHy5ssDO9361qRA2f2Sw-36" target="ZHy5ssDO9361qRA2f2Sw-16" edge="1">
          <mxGeometry relative="1" as="geometry" />
        </mxCell>
        <mxCell id="ptIwj1_LwddvAGhthmih-18" value="1..1" style="edgeLabel;html=1;align=center;verticalAlign=middle;resizable=0;points=[];" parent="ZHy5ssDO9361qRA2f2Sw-42" vertex="1" connectable="0">
          <mxGeometry x="-0.7604" y="2" relative="1" as="geometry">
            <mxPoint x="8" as="offset" />
          </mxGeometry>
        </mxCell>
        <mxCell id="ptIwj1_LwddvAGhthmih-19" value="0..*" style="edgeLabel;html=1;align=center;verticalAlign=middle;resizable=0;points=[];" parent="ZHy5ssDO9361qRA2f2Sw-42" vertex="1" connectable="0">
          <mxGeometry x="0.7604" y="1" relative="1" as="geometry">
            <mxPoint x="9" as="offset" />
          </mxGeometry>
        </mxCell>
        <mxCell id="ZHy5ssDO9361qRA2f2Sw-36" value="Country" style="swimlane;fontStyle=1;align=center;verticalAlign=top;childLayout=stackLayout;horizontal=1;startSize=26;horizontalStack=0;resizeParent=1;resizeParentMax=0;resizeLast=0;collapsible=1;marginBottom=0;" parent="WIyWlLk6GJQsqaUBKTNV-1" vertex="1">
          <mxGeometry x="590" y="30" width="160" height="80" as="geometry" />
        </mxCell>
        <mxCell id="ZHy5ssDO9361qRA2f2Sw-37" value="+ id: int&#xa;+name: str&#xa;+code: str" style="text;strokeColor=none;fillColor=none;align=left;verticalAlign=top;spacingLeft=4;spacingRight=4;overflow=hidden;rotatable=0;points=[[0,0.5],[1,0.5]];portConstraint=eastwest;" parent="ZHy5ssDO9361qRA2f2Sw-36" vertex="1">
          <mxGeometry y="26" width="160" height="54" as="geometry" />
        </mxCell>
        <mxCell id="ZHy5ssDO9361qRA2f2Sw-44" style="edgeStyle=orthogonalEdgeStyle;rounded=0;orthogonalLoop=1;jettySize=auto;html=1;entryX=0.5;entryY=0;entryDx=0;entryDy=0;endArrow=none;endFill=0;exitX=0.5;exitY=1.01;exitDx=0;exitDy=0;exitPerimeter=0;" parent="WIyWlLk6GJQsqaUBKTNV-1" target="ZHy5ssDO9361qRA2f2Sw-20" edge="1" source="ZHy5ssDO9361qRA2f2Sw-25">
          <mxGeometry relative="1" as="geometry">
            <mxPoint x="670" y="520" as="sourcePoint" />
          </mxGeometry>
        </mxCell>
        <mxCell id="ptIwj1_LwddvAGhthmih-8" value="0..*" style="edgeLabel;html=1;align=center;verticalAlign=middle;resizable=0;points=[];" parent="ZHy5ssDO9361qRA2f2Sw-44" vertex="1" connectable="0">
          <mxGeometry x="0.7656" relative="1" as="geometry">
            <mxPoint as="offset" />
          </mxGeometry>
        </mxCell>
        <mxCell id="ptIwj1_LwddvAGhthmih-9" value="1..1" style="edgeLabel;html=1;align=center;verticalAlign=middle;resizable=0;points=[];" parent="ZHy5ssDO9361qRA2f2Sw-44" vertex="1" connectable="0">
          <mxGeometry x="-0.8478" relative="1" as="geometry">
            <mxPoint as="offset" />
          </mxGeometry>
        </mxCell>
        <mxCell id="ZHy5ssDO9361qRA2f2Sw-46" style="edgeStyle=orthogonalEdgeStyle;rounded=0;orthogonalLoop=1;jettySize=auto;html=1;exitX=-0.015;exitY=0.186;exitDx=0;exitDy=0;endArrow=none;endFill=0;entryX=1.014;entryY=0.203;entryDx=0;entryDy=0;entryPerimeter=0;exitPerimeter=0;" parent="WIyWlLk6GJQsqaUBKTNV-1" source="ZHy5ssDO9361qRA2f2Sw-5" target="ZHy5ssDO9361qRA2f2Sw-9" edge="1">
          <mxGeometry relative="1" as="geometry" />
        </mxCell>
        <mxCell id="ptIwj1_LwddvAGhthmih-2" value="1..*" style="edgeLabel;html=1;align=center;verticalAlign=middle;resizable=0;points=[];" parent="ZHy5ssDO9361qRA2f2Sw-46" vertex="1" connectable="0">
          <mxGeometry x="0.7655" relative="1" as="geometry">
            <mxPoint y="-13" as="offset" />
          </mxGeometry>
        </mxCell>
        <mxCell id="ptIwj1_LwddvAGhthmih-3" value="0..*" style="edgeLabel;html=1;align=center;verticalAlign=middle;resizable=0;points=[];" parent="ZHy5ssDO9361qRA2f2Sw-46" vertex="1" connectable="0">
          <mxGeometry x="-0.7591" y="-2" relative="1" as="geometry">
            <mxPoint y="-13" as="offset" />
          </mxGeometry>
        </mxCell>
        <mxCell id="ZHy5ssDO9361qRA2f2Sw-47" style="edgeStyle=orthogonalEdgeStyle;rounded=0;orthogonalLoop=1;jettySize=auto;html=1;exitX=0.5;exitY=0;exitDx=0;exitDy=0;entryX=0;entryY=0.5;entryDx=0;entryDy=0;endArrow=none;endFill=0;" parent="WIyWlLk6GJQsqaUBKTNV-1" source="ZHy5ssDO9361qRA2f2Sw-32" target="ZHy5ssDO9361qRA2f2Sw-25" edge="1">
          <mxGeometry relative="1" as="geometry" />
        </mxCell>
        <mxCell id="ptIwj1_LwddvAGhthmih-10" value="0..*" style="edgeLabel;html=1;align=center;verticalAlign=middle;resizable=0;points=[];" parent="ZHy5ssDO9361qRA2f2Sw-47" vertex="1" connectable="0">
          <mxGeometry x="-0.918" relative="1" as="geometry">
            <mxPoint x="10" y="4" as="offset" />
          </mxGeometry>
        </mxCell>
        <mxCell id="ptIwj1_LwddvAGhthmih-11" value="0..*" style="edgeLabel;html=1;align=center;verticalAlign=middle;resizable=0;points=[];" parent="ZHy5ssDO9361qRA2f2Sw-47" vertex="1" connectable="0">
          <mxGeometry x="0.9406" relative="1" as="geometry">
            <mxPoint x="-1" y="-8" as="offset" />
          </mxGeometry>
        </mxCell>
        <mxCell id="ptIwj1_LwddvAGhthmih-13" value="season participants" style="edgeLabel;html=1;align=center;verticalAlign=middle;resizable=0;points=[];" parent="ZHy5ssDO9361qRA2f2Sw-47" vertex="1" connectable="0">
          <mxGeometry x="-0.1015" y="2" relative="1" as="geometry">
            <mxPoint as="offset" />
          </mxGeometry>
        </mxCell>
        <mxCell id="ZHy5ssDO9361qRA2f2Sw-48" style="edgeStyle=orthogonalEdgeStyle;rounded=0;orthogonalLoop=1;jettySize=auto;html=1;entryX=0.5;entryY=0;entryDx=0;entryDy=0;endArrow=none;endFill=0;" parent="WIyWlLk6GJQsqaUBKTNV-1" source="ZHy5ssDO9361qRA2f2Sw-7" target="ZHy5ssDO9361qRA2f2Sw-12" edge="1">
          <mxGeometry relative="1" as="geometry" />
        </mxCell>
        <mxCell id="ptIwj1_LwddvAGhthmih-14" value="1..1" style="edgeLabel;html=1;align=center;verticalAlign=middle;resizable=0;points=[];" parent="ZHy5ssDO9361qRA2f2Sw-48" vertex="1" connectable="0">
          <mxGeometry x="0.8917" y="-1" relative="1" as="geometry">
            <mxPoint x="11" as="offset" />
          </mxGeometry>
        </mxCell>
        <mxCell id="ptIwj1_LwddvAGhthmih-15" value="0..*" style="edgeLabel;html=1;align=center;verticalAlign=middle;resizable=0;points=[];" parent="ZHy5ssDO9361qRA2f2Sw-48" vertex="1" connectable="0">
          <mxGeometry x="-0.8967" relative="1" as="geometry">
            <mxPoint y="-14" as="offset" />
          </mxGeometry>
        </mxCell>
        <mxCell id="ZHy5ssDO9361qRA2f2Sw-49" style="edgeStyle=orthogonalEdgeStyle;rounded=0;orthogonalLoop=1;jettySize=auto;html=1;exitX=1.003;exitY=0.689;exitDx=0;exitDy=0;entryX=0;entryY=0.25;entryDx=0;entryDy=0;exitPerimeter=0;endArrow=none;endFill=0;" parent="WIyWlLk6GJQsqaUBKTNV-1" source="ZHy5ssDO9361qRA2f2Sw-5" target="ZHy5ssDO9361qRA2f2Sw-24" edge="1">
          <mxGeometry relative="1" as="geometry" />
        </mxCell>
        <mxCell id="ptIwj1_LwddvAGhthmih-4" value="1..*" style="edgeLabel;html=1;align=center;verticalAlign=middle;resizable=0;points=[];" parent="ZHy5ssDO9361qRA2f2Sw-49" vertex="1" connectable="0">
          <mxGeometry x="0.9109" relative="1" as="geometry">
            <mxPoint y="-14" as="offset" />
          </mxGeometry>
        </mxCell>
        <mxCell id="ptIwj1_LwddvAGhthmih-5" value="0..*" style="edgeLabel;html=1;align=center;verticalAlign=middle;resizable=0;points=[];" parent="ZHy5ssDO9361qRA2f2Sw-49" vertex="1" connectable="0">
          <mxGeometry x="-0.9331" relative="1" as="geometry">
            <mxPoint y="-11" as="offset" />
          </mxGeometry>
        </mxCell>
        <mxCell id="FipxBfKqJdFD2VCzF2LS-0" style="edgeStyle=orthogonalEdgeStyle;rounded=0;orthogonalLoop=1;jettySize=auto;html=1;exitX=0;exitY=0.5;exitDx=0;exitDy=0;entryX=0.613;entryY=1.019;entryDx=0;entryDy=0;entryPerimeter=0;endArrow=none;endFill=0;" edge="1" parent="WIyWlLk6GJQsqaUBKTNV-1" source="ZHy5ssDO9361qRA2f2Sw-21" target="ZHy5ssDO9361qRA2f2Sw-33">
          <mxGeometry relative="1" as="geometry">
            <Array as="points">
              <mxPoint x="590" y="640" />
              <mxPoint x="378" y="640" />
            </Array>
          </mxGeometry>
        </mxCell>
        <mxCell id="FipxBfKqJdFD2VCzF2LS-3" value="1..1" style="edgeLabel;html=1;align=center;verticalAlign=middle;resizable=0;points=[];" vertex="1" connectable="0" parent="FipxBfKqJdFD2VCzF2LS-0">
          <mxGeometry x="0.8874" y="-3" relative="1" as="geometry">
            <mxPoint x="9" y="-5" as="offset" />
          </mxGeometry>
        </mxCell>
        <mxCell id="FipxBfKqJdFD2VCzF2LS-6" value="0..*" style="edgeLabel;html=1;align=center;verticalAlign=middle;resizable=0;points=[];" vertex="1" connectable="0" parent="FipxBfKqJdFD2VCzF2LS-0">
          <mxGeometry x="-0.683" y="1" relative="1" as="geometry">
            <mxPoint y="-11" as="offset" />
          </mxGeometry>
        </mxCell>
        <mxCell id="FipxBfKqJdFD2VCzF2LS-7" value="away team" style="edgeLabel;html=1;align=center;verticalAlign=middle;resizable=0;points=[];" vertex="1" connectable="0" parent="FipxBfKqJdFD2VCzF2LS-0">
          <mxGeometry x="0.092" y="-2" relative="1" as="geometry">
            <mxPoint as="offset" />
          </mxGeometry>
        </mxCell>
        <mxCell id="FipxBfKqJdFD2VCzF2LS-1" style="edgeStyle=orthogonalEdgeStyle;rounded=0;orthogonalLoop=1;jettySize=auto;html=1;exitX=0;exitY=0.5;exitDx=0;exitDy=0;entryX=0.119;entryY=1.037;entryDx=0;entryDy=0;entryPerimeter=0;endArrow=none;endFill=0;" edge="1" parent="WIyWlLk6GJQsqaUBKTNV-1" source="ZHy5ssDO9361qRA2f2Sw-21" target="ZHy5ssDO9361qRA2f2Sw-33">
          <mxGeometry relative="1" as="geometry">
            <Array as="points">
              <mxPoint x="300" y="671" />
            </Array>
          </mxGeometry>
        </mxCell>
        <mxCell id="FipxBfKqJdFD2VCzF2LS-2" value="1..1" style="edgeLabel;html=1;align=center;verticalAlign=middle;resizable=0;points=[];" vertex="1" connectable="0" parent="FipxBfKqJdFD2VCzF2LS-1">
          <mxGeometry x="0.9334" y="-2" relative="1" as="geometry">
            <mxPoint x="-21" as="offset" />
          </mxGeometry>
        </mxCell>
        <mxCell id="FipxBfKqJdFD2VCzF2LS-5" value="0..*" style="edgeLabel;html=1;align=center;verticalAlign=middle;resizable=0;points=[];" vertex="1" connectable="0" parent="FipxBfKqJdFD2VCzF2LS-1">
          <mxGeometry x="-0.928" y="1" relative="1" as="geometry">
            <mxPoint y="8" as="offset" />
          </mxGeometry>
        </mxCell>
        <mxCell id="FipxBfKqJdFD2VCzF2LS-8" value="home team" style="edgeLabel;html=1;align=center;verticalAlign=middle;resizable=0;points=[];" vertex="1" connectable="0" parent="FipxBfKqJdFD2VCzF2LS-1">
          <mxGeometry x="-0.1912" y="-3" relative="1" as="geometry">
            <mxPoint as="offset" />
          </mxGeometry>
        </mxCell>
      </root>
    </mxGraphModel>
  </diagram>
</mxfile>
